# AST/ASF file generated using VICON BodyLanguage
# -----------------------------------------------
:version 1.10
:name VICON
:units
  mass 1.0
  length 0.45
  angle deg
:documentation
   .ast/.asf automatically generated from VICON data using
   VICON BodyBuilder and BodyLanguage model FoxedUp or BRILLIANT.MOD
:root
   order TX TY TZ RX RY RZ
   axis XYZ
   position 0 0 0  
   orientation 0 0 0 
:bonedata
  begin
     id 1 
     name lhipjoint
     direction 0.624716 -0.669793 0.401383 
     length 2.38238 
     axis 0 0 0  XYZ
  end
  begin
     id 2 
     name lfemur
     direction 0.34202 -0.939693 0  
     length 6.4574  
     axis 0 0 20  XYZ
    dof rx ry rz
    limits (-160.0 20.0)
           (-70.0 70.0)
           (-60.0 70.0)
  end
  begin
     id 3 
     name ltibia
     direction 0.34202 -0.939693 0   
     length 7.68739   
     axis 0 0 20   XYZ
    dof rx
    limits (-10.0 170.0)
  end
  begin
     id 4 
     name lfoot
     direction 0.0681309 -0.187188 0.979959   
     length 2.46615   
     axis -90 7.62852e-016 20   XYZ
    dof rx rz
    limits (-45.0 90.0)
           (-70.0 20.0)
  end
  begin
     id 5 
     name ltoes
     direction 1.53566e-011 -4.21819e-011 1   
     length 1.2376   
     axis -90 7.62852e-016 20   XYZ
    dof rx
    limits (-90.0 20.0)
  end
  begin
     id 6 
     name rhipjoint
     direction -0.644473 -0.655875 0.393043   
     length 2.43293  
     axis 0 0 0  XYZ 
  end
  begin
     id 7 
     name rfemur
     direction -0.34202 -0.939693 0   
     length 6.7025   
     axis 0 0 -20   XYZ
    dof rx ry rz
    limits (-160.0 20.0)
           (-70.0 70.0)
           (-70.0 60.0)
  end
  begin
     id 8 
     name rtibia
     direction -0.34202 -0.939693 0   
     length 7.80547   
     axis 0 0 -20   XYZ
    dof rx
    limits (-10.0 170.0)
 end
 begin
     id 9 
     name rfoot
     direction -0.0756734 -0.207911 0.975216   
     length 2.40315  
     axis -90 -7.62852e-016 -20   XYZ
    dof rx rz
    limits (-45.0 90.0)
           (-20.0 70.0)
  end
  begin
     id 10 
     name rtoes
     direction -1.5353e-011 -4.21879e-011 1   
     length 1.20477   
     axis -90 -7.62852e-016 -20   XYZ
    dof rx
    limits (-90.0 20.0)
  end
  begin
     id 11 
     name lowerback
     direction 0.0160353 0.987463 -0.157037   
     length 2.18572   
     axis 0 0 0   XYZ
    dof rx ry rz
    limits (-20.0 45.0)
           (-30.0 30.0)
           (-30.0 30.0)
  end
  begin
     id 12 
     name upperback
     direction -0.00499661 0.999756 0.0215076   
     length 2.18016   
     axis 0 0 0   XYZ
    dof rx ry rz
    limits (-20.0 45.0)
           (-30.0 30.0)
           (-30.0 30.0)
  end
  begin
     id 13 
     name thorax
     direction -0.00921346 0.995333 0.0960619   
     length 2.24923   
     axis 0 0 0   XYZ
    dof rx ry rz
    limits (-20.0 45.0)
           (-30.0 30.0)
           (-30.0 30.0)
  end
  begin
     id 14 
     name lowerneck
     direction 0.0274184 0.991181 0.12965   
     length 1.70911   
     axis 0 0 0   XYZ
    dof rx ry rz
    limits (-20.0 45.0)
           (-30.0 30.0)
           (-30.0 30.0)
  end
  begin
     id 15 
     name upperneck
     direction 0.0015627 0.999959 -0.00893559   
     length 1.69312   
     axis 0 0 0   XYZ
    dof rx ry rz
    limits (-20.0 45.0)
           (-30.0 30.0)
           (-30.0 30.0)
  end
  begin
     id 16
     name head
     direction -0.00230242 0.999856 -0.0168327  
     length 1.80241  
     axis 0 0 0   XYZ
    dof rx ry rz
    limits (-20.0 45.0)
           (-30.0 30.0)
           (-30.0 30.0)
  end
  begin
     id 17 
     name lclavicle
     direction 0.955523 0.290741 -0.0494489  
     length 3.84275  
     axis 0 0 0   XYZ
    dof ry rz
    limits (-20.0 10.0)
           (0.0 20.0)
  end
  begin
     id 18 
     name lhumerus
     direction 1 -4.48967e-011 -3.18382e-028   
     length 5.17714   
     axis 180 -30 -90   XYZ
    dof rx ry rz
    limits (-60.0 90.0)
           (-90.0 90.0)
           (-90.0 90.0)
  end
  begin
     id 19
     name lradius
     direction 1 -4.48968e-011 -2.22911e-027   
     length 3.43679   
     axis 180 -30 -90   XYZ
    dof rx
    limits (-10.0 170.0)
  end
  begin
     id 20
     name lwrist
     direction 1 -4.48951e-011 -6.32245e-027   
     length 1.7184   
     axis 3.57107e-015 90 90   XYZ
    dof ry
    limits (-180.0 0.0)
 end
  begin
     id 21 
     name lhand
     direction 1 -4.48924e-011 -1.26431e-026   
     length 0.573117   
     axis 8.06912e-015 90 90   XYZ
    dof rx rz
    limits (-90.0 90.0)
           (-45.0 45.0)
  end
  begin
     id 22 
     name lfingers
     direction 1 -4.49001e-011 -2.52965e-026   
     length 0.462062   
     axis 1.61381e-014 90 90   XYZ
    dof rx
    limits (0.0 90.0)
  end
  begin
     id 23
     name lthumb
     direction 0.707107 -6.35008e-011 0.707107   
     length 0.663431   
     axis -90 45 -1.62303e-014   XYZ
    dof rx rz
    limits (-45.0 45.0)
           (-45.0 45.0)
  end
  begin
     id 24 
     name rclavicle
     direction -0.963917 0.256881 -0.0698287   
     length 3.73057  
     axis 0 0 0   XYZ 
    dof ry rz
    limits (-10.0 20.0)
           (-20.0 0.0)
  end
  begin
     id 25 
     name rhumerus
     direction -1 -4.48962e-011 -2.73982e-027  
     length 5.23908   
     axis 180 30 90   XYZ
    dof rx ry rz
    limits (-90.0 60.0)
           (-90.0 90.0)
           (-90.0 90.0)
  end
  begin
     id 26 
     name rradius
     direction -1 -4.48968e-011 -4.33218e-027   
     length 3.46485   
     axis 180 30 90   XYZ
    dof rx
    limits (-10.0 170.0)
  end
  begin
     id 27 
     name rwrist
     direction -1 -4.48989e-011 -6.32372e-027   
     length 1.73243   
     axis 3.57107e-015 -90 -90   XYZ
    dof ry
    limits (-180.0 0.0)
  end
  begin
     id 28
     name rhand
     direction -1 -4.48948e-011 -1.26448e-026   
     length 0.608752   
     axis 8.06912e-015 -90 -90   XYZ
    dof rx rz
    limits (-90.0 90.0)
           (-45.0 45.0)
  end
  begin
     id 29
     name rfingers
     direction -1 -4.48962e-011 -2.52913e-026   
     length 0.490792   
     axis 1.61381e-014 -90 -90   XYZ
    dof rx
    limits (0.0 90.0)
  end
  begin
     id 30
     name rthumb
     direction -0.707107 -6.34878e-011 0.707107   
     length 0.704682   
     axis -90 -45 1.62303e-014   XYZ
    dof rx rz
    limits (-45.0 45.0)
           (-45.0 45.0)
  end
:hierarchy
  begin
    root lhipjoint rhipjoint lowerback
    lhipjoint lfemur
    lfemur ltibia
    ltibia lfoot
    lfoot ltoes
    rhipjoint rfemur
    rfemur rtibia
    rtibia rfoot
    rfoot rtoes
    lowerback upperback
    upperback thorax
    thorax lowerneck lclavicle rclavicle
    lowerneck upperneck
    upperneck head
    lclavicle lhumerus
    lhumerus lradius
    lradius lwrist
    lwrist lhand lthumb
    lhand lfingers
    rclavicle rhumerus
    rhumerus rradius
    rradius rwrist
    rwrist rhand rthumb
    rhand rfingers
  end

#!OML:ASF G:\JayActor3\Patient Classification 1\Patient 1\Session 6\male.ASF
:FULLY-SPECIFIED
:DEGREES
410
root 43.3498 15.9019 6.21105 172.696 -32.7715 -171.652
lowerback 7.6757 0.914148 12.5874
upperback -3.49159 2.58109 2.74638
thorax -7.67725 0.601427 -4.4525
lowerneck -0.657631 7.78768 8.88523
upperneck 3.63207 10.298 -2.81907
head 1.929 5.21266 -2.17854
rclavicle 9.28324e-014 -2.46493e-014
rhumerus -29.6125 16.7144 -82.3991
rradius 29.8246
rwrist 9.36381
rhand 1.26361 -0.799235
rfingers 7.12502
rthumb 26.8001 -28.9204
lclavicle 9.28324e-014 -2.46493e-014
lhumerus -52.1428 -4.48947 79.7693
lradius 35.1766
lwrist 25.815
lhand -9.59533 8.90964
lfingers 7.12502
lthumb 16.3733 38.2385
rfemur 19.639 -2.41003 33.1976
rtibia 5.56568
rfoot -17.4181 -8.15669
rtoes 4.39593
lfemur -29.6516 15.3841 -18.2783
ltibia 28.3064
lfoot -12.4075 8.49217
ltoes -9.70911
411
root 43.2937 15.8884 6.12843 172.805 -32.3395 -171.524
lowerback 7.56992 0.976782 12.5673
upperback -3.54335 2.64766 2.73008
thorax -7.66072 0.632799 -4.46429
lowerneck -0.601467 7.84539 8.88918
upperneck 3.5767 10.3773 -2.765
head 1.90237 5.25221 -2.16173
rclavicle 3.53837e-014 4.77083e-014
rhumerus -29.6039 16.6722 -82.6259
rradius 29.7993
rwrist 9.49789
rhand 1.47171 -0.927402
rfingers 7.12502
rthumb 26.9992 -29.0179
lclavicle 3.53837e-014 4.77083e-014
lhumerus -52.3899 -4.45483 79.7923
lradius 35.1647
lwrist 25.8269
lhand -9.49401 8.80307
lfingers 7.12502
lthumb 16.4709 38.1239
rfemur 20.2638 -2.11284 33.333
rtibia 4.82873
rfoot -17.0819 -8.11418
rtoes 3.92415
lfemur -29.4547 14.7917 -17.8895
ltibia 27.5123
lfoot -13.1569 9.39779
ltoes -9.65019
412
root 43.2382 15.8744 6.04514 172.908 -31.8993 -171.4
lowerback 7.46858 1.03398 12.5296
upperback -3.5852 2.70538 2.71298
thorax -7.63781 0.661754 -4.46614
lowerneck -0.554148 7.91154 8.88759
upperneck 3.52414 10.4668 -2.70041
head 1.87778 5.29681 -2.13979
rclavicle 9.9939e-014 -2.22639e-014
rhumerus -29.6019 16.6157 -82.8542
rradius 29.8069
rwrist 9.59111
rhand 1.64058 -1.06942
rfingers 7.12502
rthumb 27.1608 -29.1348
lclavicle 9.9939e-014 -2.22639e-014
lhumerus -52.6196 -4.44112 79.8301
lradius 35.1428
lwrist 25.8455
lhand -9.38017 8.69109
lfingers 7.12502
lthumb 16.5805 38.0028
rfemur 20.9013 -1.81104 33.4706
rtibia 4.09694
rfoot -16.7544 -8.05178
rtoes 3.60367
lfemur -29.2731 14.2311 -17.4818
ltibia 26.8857
lfoot -13.8708 10.1891
ltoes -9.52514
413
root 43.1829 15.8598 5.96145 173.003 -31.4606 -171.284
lowerback 7.37168 1.08298 12.4781
upperback -3.61515 2.75086 2.69128
thorax -7.60667 0.686673 -4.46376
lowerneck -0.504654 7.98286 8.88811
upperneck 3.45912 10.5634 -2.63468
head 1.84916 5.34474 -2.118
rclavicle -1.14798e-014 1.55052e-014
rhumerus -29.5994 16.5413 -83.0856
rradius 29.8398
rwrist 9.64692
rhand 1.75612 -1.21984
rfingers 7.12502
rthumb 27.2713 -29.2679
lclavicle -1.14798e-014 1.55052e-014
lhumerus -52.8231 -4.45376 79.8809
lradius 35.1074
lwrist 25.8624
lhand -9.26934 8.56855
lfingers 7.12502
lthumb 16.6872 37.8713
rfemur 21.5309 -1.51282 33.6013
rtibia 3.41157
rfoot -16.4428 -7.96549
rtoes 3.35613
lfemur -29.0882 13.6891 -17.0623
ltibia 26.4062
lfoot -14.5366 10.8089
ltoes -9.35932
414
root 43.1278 15.8444 5.87766 173.084 -31.0313 -171.168
lowerback 7.28315 1.12271 12.4227
upperback -3.63548 2.7845 2.66479
thorax -7.57179 0.706802 -4.46315
lowerneck -0.459229 8.06037 8.89365
upperneck 3.39554 10.6676 -2.56622
head 1.82232 5.39652 -2.09579
rclavicle 5.8393e-014 9.46215e-014
rhumerus -29.6065 16.4504 -83.3202
rradius 29.9017
rwrist 9.66543
rhand 1.79966 -1.41557
rfingers 7.12502
rthumb 27.313 -29.4571
lclavicle 5.8393e-014 9.46215e-014
lhumerus -52.9943 -4.49679 79.9423
lradius 35.0509
lwrist 25.8706
lhand -9.14215 8.47583
lfingers 7.12502
lthumb 16.8096 37.7682
rfemur 22.1167 -1.22574 33.7257
rtibia 2.83961
rfoot -16.172 -7.84716
rtoes 3.19135
lfemur -28.8882 13.1896 -16.6367
ltibia 26.0523
lfoot -15.1271 11.1829
ltoes -9.25875
